<svg width="216" height="101" viewBox="0 0 216 101" fill="none" xmlns="http://www.w3.org/2000/svg">
<path d="M102.247 72.0308C103.008 72.0308 103.784 72.2007 104.575 72.5381C105.395 72.8756 106.186 73.3066 106.947 73.8288H106.903C107.664 74.4125 108.251 75.181 108.661 76.1342C109.071 77.0578 109.275 78.1342 109.275 79.3633V92.4642C109.275 94.9864 108.484 96.846 106.903 98.0455C105.351 99.213 103.799 99.7992 102.247 99.7992H95.2171C94.4559 99.7992 93.6799 99.6613 92.8892 99.3829C92.0986 99.1071 91.3227 98.6613 90.5615 98.0455C88.9801 96.878 88.1895 95.016 88.1895 92.4642V79.3633C88.1895 78.1342 88.3933 77.0578 88.8033 76.1342C89.2134 75.181 89.8003 74.4125 90.5615 73.8288H90.5172C91.249 73.3066 92.0249 72.8756 92.8451 72.5381C93.6652 72.2007 94.4559 72.0308 95.2171 72.0308H102.247ZM101.456 95.4642C102.539 95.4642 103.301 95.1416 103.742 94.4938C104.211 93.8485 104.445 93.1564 104.445 92.4174V79.4101C104.445 78.6416 104.211 77.9495 103.742 77.3337C103.303 76.6884 102.542 76.3657 101.456 76.3657H96.0102C94.9273 76.3657 94.1489 76.6884 93.6824 77.3337C93.2428 77.9495 93.0243 78.6416 93.0243 79.4101V92.4174C93.0243 93.1564 93.2428 93.8485 93.6824 94.4938C94.1514 95.1391 94.9273 95.4642 96.0102 95.4642H101.456Z" fill="#00BBB4"/>
<path d="M135.916 92.4667C135.916 93.6982 135.712 94.7893 135.302 95.7425C134.892 96.6957 134.305 97.4642 133.544 98.0479H133.588C132.857 98.5701 132.081 99.0011 131.26 99.3386C130.44 99.6465 129.65 99.8016 128.888 99.8016H121.817C121.085 99.8016 120.294 99.6489 119.445 99.3386C118.625 99.0011 117.849 98.5701 117.117 98.0479H117.161C116.4 97.4642 115.813 96.6957 115.403 95.7425C114.993 94.7893 114.789 93.6982 114.789 92.4667V73.9692C114.789 72.4938 115.594 71.7549 117.205 71.7549C118.816 71.7549 119.621 72.4913 119.621 73.9692V92.0972C119.621 92.9593 119.828 93.7105 120.235 94.3583C120.616 95.0948 121.407 95.4642 122.607 95.4642H128.098C129.269 95.4642 130.045 95.0948 130.426 94.3583L130.381 94.4051C130.85 93.6662 131.084 92.8977 131.084 92.0997V73.9716C131.084 72.4963 131.889 71.7573 133.5 71.7573C135.111 71.7573 135.916 72.4938 135.916 73.9716V92.4691V92.4667Z" fill="#00BBB4"/>
<path d="M157.678 76.3679H149.2C147.999 76.3679 147.208 76.7373 146.828 77.4738C146.418 78.1191 146.214 78.8728 146.214 79.7349V93.0206C146.214 93.8211 146.447 94.4344 146.916 94.8654C147.385 95.2644 148.161 95.4639 149.244 95.4639H153.769C154.825 95.4639 155.351 96.1856 155.351 97.6314C155.351 98.2472 155.218 98.7693 154.955 99.2004C154.722 99.5994 154.327 99.7989 153.769 99.7989H148.453C146.609 99.7989 144.969 99.3063 143.532 98.3235C142.096 97.4023 141.379 95.6487 141.379 93.0649V79.3186C141.379 78.0575 141.57 76.9664 141.951 76.0452C142.332 75.1216 142.933 74.3679 143.753 73.7841C145.305 72.6167 146.857 72.0305 148.409 72.0305H157.678V65.1117C157.678 63.6364 158.484 62.8975 160.095 62.8975C161.705 62.8975 162.511 63.6364 162.511 65.1117V97.8629C162.511 99.3383 161.705 100.077 160.095 100.077C159.481 100.077 158.923 99.9688 158.425 99.7546C157.926 99.5082 157.678 98.9861 157.678 98.1856V76.3679Z" fill="#00BBB4"/>
<path d="M182.329 72.0308C183.093 72.0308 183.869 72.2007 184.659 72.5381C185.477 72.8756 186.268 73.3066 187.031 73.8288H186.99C187.746 74.4125 188.338 75.181 188.743 76.1342C189.155 77.0578 189.362 78.1342 189.362 79.3633V92.4642C189.362 94.9864 188.571 96.846 186.99 98.0455C185.435 99.213 183.883 99.7992 182.329 99.7992H175.299C174.535 99.7992 173.759 99.6613 172.971 99.3829C172.181 99.1071 171.405 98.6613 170.643 98.0455C169.062 96.878 168.271 95.016 168.271 92.4642V79.3633C168.271 78.1342 168.475 77.0578 168.885 76.1342C169.295 75.181 169.882 74.4125 170.643 73.8288H170.599C171.331 73.3066 172.107 72.8756 172.927 72.5381C173.745 72.2007 174.535 72.0308 175.299 72.0308H182.329ZM181.541 95.4642C182.626 95.4642 183.383 95.1416 183.822 94.4938C184.296 93.8485 184.529 93.1564 184.529 92.4174V79.4101C184.529 78.6416 184.296 77.9495 183.822 77.3337C183.383 76.6884 182.626 76.3657 181.541 76.3657H176.092C175.014 76.3657 174.236 76.6884 173.762 77.3337C173.327 77.9495 173.106 78.6416 173.106 79.4101V92.4174C173.106 93.1564 173.327 93.8485 173.762 94.4938C174.236 95.1391 175.012 95.4642 176.092 95.4642H181.541Z" fill="#00BBB4"/>
<path d="M199.695 97.8632C199.695 99.3386 198.892 100.078 197.284 100.078C195.676 100.078 194.865 99.3386 194.865 97.8632V79.3189C194.865 78.0578 195.057 76.9667 195.435 76.0455C195.82 75.1219 196.417 74.3682 197.235 73.7845C198.789 72.617 200.341 72.0308 201.895 72.0308H208.967C210.465 72.0308 212.012 72.6145 213.628 73.7845C215.209 74.9519 216 76.7968 216 79.3189V97.8632C216 99.3386 215.197 100.078 213.581 100.078C211.965 100.078 211.17 99.3386 211.17 97.8632V79.7352C211.17 78.9347 210.936 78.1662 210.47 77.4298L210.512 77.4766C210.133 76.7376 209.358 76.3707 208.181 76.3707H202.691C201.488 76.3707 200.697 76.7401 200.319 77.4766C199.906 78.1219 199.7 78.8756 199.7 79.7376V97.8657L199.695 97.8632Z" fill="#00BBB4"/>
<path d="M19.0202 38.2352C29.5248 38.2352 38.0404 29.6933 38.0404 19.1564C38.0404 8.6195 29.5248 0.0776367 19.0202 0.0776367C8.51563 0.0776367 0 8.6195 0 19.1564C0 29.6933 8.51563 38.2352 19.0202 38.2352Z" fill="#00BBB4"/>
<path fill-rule="evenodd" clip-rule="evenodd" d="M64.6691 6.20035C72.0969 -1.25038 84.1386 -1.25038 91.5664 6.20035C98.9943 13.6511 98.9943 25.7299 91.5664 33.1806L68.0306 56.789V80.8554C68.0306 91.3924 59.515 99.9342 49.0104 99.9342C38.5059 99.9342 29.9902 91.3924 29.9902 80.8554V49.1436C29.9902 45.8875 30.803 42.8235 32.237 40.1412C33.1333 38.3284 34.3315 36.6264 35.8392 35.119L64.6715 6.19789L64.6691 6.20035Z" fill="#00BBB4"/>
</svg>
