<svg width="16" height="16" viewBox="0 0 16 16" fill="none" xmlns="http://www.w3.org/2000/svg">
<g clip-path="url(#clip0_13_168)">
<path d="M14.3048 7.91683C13.5974 7.98518 13.1102 8.39656 12.639 8.85824C11.2188 10.2471 9.7866 11.6231 8.35438 12.9991C8.09143 13.2519 7.92191 13.5408 7.86452 13.8954C7.79111 14.3416 7.695 14.7839 7.63627 15.2327C7.60424 15.4803 7.63093 15.7356 7.63093 15.9987C7.62159 15.9987 7.56686 15.9987 7.51214 15.9987C5.71419 15.9987 3.91624 16.0013 2.11829 15.9987C1.08651 15.9961 0.232252 15.3101 0.0387086 14.3313C0.00800867 14.1752 0.00133478 14.0115 0.00133478 13.8515C0 10.4483 0 7.04378 0 3.64053C0 2.51601 0.698089 1.68293 1.80596 1.52173C2.14232 1.47273 2.49203 1.51399 2.86043 1.51399C2.86043 1.71904 2.85776 1.93182 2.86043 2.14332C2.87245 2.97124 3.46242 3.65472 4.30199 3.80689C4.43948 3.8314 4.58363 3.83526 4.72512 3.83526C6.35088 3.83655 7.97664 3.83913 9.6024 3.83526C10.5234 3.83397 11.2121 3.3349 11.4137 2.52761C11.4524 2.37286 11.4591 2.21037 11.4671 2.05046C11.4764 1.87379 11.4698 1.69583 11.4698 1.51915C12.639 1.38245 13.7068 1.62361 14.1914 2.86549C14.2741 3.07698 14.3088 3.31814 14.3102 3.54639C14.3208 4.95721 14.3155 6.36674 14.3155 7.77755C14.3155 7.81753 14.3102 7.8588 14.3062 7.91554L14.3048 7.91683ZM6.52173 7.04506C6.97689 7.04506 7.43339 7.04506 7.88855 7.04506C8.38775 7.04506 8.88562 7.05022 9.38483 7.04249C9.77192 7.03604 10.0189 6.67882 9.87336 6.34353C9.75857 6.07916 9.52765 6.01855 9.25402 6.01855C7.43739 6.02242 5.62076 6.01984 3.80412 6.02113C3.74939 6.02113 3.69333 6.02113 3.63861 6.02758C3.31292 6.05853 3.10737 6.31257 3.15675 6.62466C3.1968 6.87613 3.41303 7.04378 3.71336 7.04506C4.64904 7.04764 5.58472 7.04506 6.52173 7.04506ZM4.95737 9.966C5.36982 9.966 5.78093 9.966 6.19338 9.966C6.52841 9.966 6.76466 9.76224 6.77534 9.4695C6.78735 9.1845 6.55243 8.94206 6.22541 8.93948C5.38316 8.93045 4.54092 8.93174 3.69867 8.93948C3.36364 8.94206 3.14474 9.16645 3.14874 9.46434C3.15408 9.75966 3.385 9.96471 3.72003 9.966C4.13248 9.96729 4.54359 9.966 4.95604 9.966H4.95737Z" fill="#007F68"/>
<path d="M7.14903 2.98027C6.3495 2.98027 5.54863 2.98027 4.7491 2.98027C4.08571 2.98027 3.74801 2.654 3.74801 2.01565C3.74801 1.63522 3.74534 1.25479 3.74801 0.874362C3.75202 0.358524 4.12042 0.00259558 4.657 0.00130599C6.33081 1.63955e-05 8.00462 -0.0012732 9.67844 0.00130599C10.2003 0.00130599 10.5741 0.361103 10.5807 0.866624C10.5861 1.26511 10.5834 1.66359 10.5807 2.06208C10.5781 2.62692 10.2257 2.97511 9.63839 2.97898C8.80816 2.98414 7.97659 2.98027 7.14636 2.98027H7.14903Z" fill="#007F68"/>
<path d="M12.3307 10.3915C12.9874 11.026 13.6348 11.6528 14.3395 12.3324C14.2861 12.3608 14.2087 12.384 14.158 12.433C13.1022 13.4492 12.0464 14.4641 10.9986 15.488C10.8277 15.6544 10.6409 15.7434 10.4059 15.7782C9.97481 15.8414 9.54501 15.9175 9.11387 15.9871C8.72011 16.0516 8.43981 15.7795 8.50521 15.3978C8.58397 14.9399 8.65471 14.4821 8.74814 14.0269C8.77351 13.8992 8.83624 13.7587 8.92967 13.6684C10.0429 12.5826 11.1654 11.5045 12.2853 10.4238C12.2987 10.4109 12.3147 10.4019 12.3307 10.3903V10.3915Z" fill="#007F68"/>
<path d="M14.9655 11.6605C14.2968 11.0131 13.6481 10.3838 12.9807 9.73644C13.2383 9.49787 13.4906 9.22576 13.7842 9.00524C14.3208 8.60289 15.0883 8.66866 15.5729 9.12517C16.0627 9.58814 16.1495 10.3374 15.7344 10.8648C15.5061 11.155 15.2178 11.4013 14.9655 11.6605Z" fill="#007F68"/>
</g>
<defs>
<clipPath id="clip0_13_168">
<rect width="16" height="16" fill="white"/>
</clipPath>
</defs>
</svg>
